<mxfile host="Electron" agent="Mozilla/5.0 (Windows NT 10.0; Win64; x64) AppleWebKit/537.36 (KHTML, like Gecko) draw.io/26.0.9 Chrome/128.0.6613.186 Electron/32.2.5 Safari/537.36" version="26.0.9">
  <diagram name="Page-1" id="EtMnzcgHfZz5ty_XabEl">
    <mxGraphModel dx="3900" dy="2455" grid="0" gridSize="10" guides="1" tooltips="1" connect="1" arrows="1" fold="1" page="1" pageScale="1" pageWidth="850" pageHeight="1100" background="none" math="0" shadow="0">
      <root>
        <mxCell id="0" />
        <mxCell id="1" parent="0" />
        <mxCell id="Np-ABr15ij-Jm8Wm-Wb1-212" value="" style="group" parent="1" vertex="1" connectable="0">
          <mxGeometry x="-1517" y="-708" width="3150" height="1726.2" as="geometry" />
        </mxCell>
        <mxCell id="Np-ABr15ij-Jm8Wm-Wb1-144" value="" style="endArrow=classic;html=1;rounded=0;entryX=1;entryY=0.5;entryDx=0;entryDy=0;strokeColor=#00FFFF;strokeWidth=5;fontSize=19;fontStyle=1" parent="Np-ABr15ij-Jm8Wm-Wb1-212" target="Np-ABr15ij-Jm8Wm-Wb1-72" edge="1">
          <mxGeometry width="50" height="50" relative="1" as="geometry">
            <mxPoint x="1548" y="490" as="sourcePoint" />
            <mxPoint x="1493" y="600" as="targetPoint" />
          </mxGeometry>
        </mxCell>
        <mxCell id="Np-ABr15ij-Jm8Wm-Wb1-163" value="sel_a" style="edgeLabel;align=center;verticalAlign=middle;resizable=0;points=[];labelBackgroundColor=none;fontSize=19;fontStyle=1;container=0;" parent="Np-ABr15ij-Jm8Wm-Wb1-144" vertex="1" connectable="0">
          <mxGeometry x="0.0697" y="-6" relative="1" as="geometry">
            <mxPoint x="19" y="-2" as="offset" />
          </mxGeometry>
        </mxCell>
        <mxCell id="Np-ABr15ij-Jm8Wm-Wb1-145" value="" style="endArrow=classic;html=1;rounded=0;entryX=1;entryY=0.5;entryDx=0;entryDy=0;strokeColor=#330066;strokeWidth=5;fontSize=19;fontStyle=1" parent="Np-ABr15ij-Jm8Wm-Wb1-212" target="Np-ABr15ij-Jm8Wm-Wb1-86" edge="1">
          <mxGeometry width="50" height="50" relative="1" as="geometry">
            <mxPoint x="1548" y="750" as="sourcePoint" />
            <mxPoint x="1493" y="600" as="targetPoint" />
          </mxGeometry>
        </mxCell>
        <mxCell id="Np-ABr15ij-Jm8Wm-Wb1-165" value="selB" style="edgeLabel;align=center;verticalAlign=middle;resizable=0;points=[];fontSize=19;fontStyle=1;labelBackgroundColor=none;container=0;" parent="Np-ABr15ij-Jm8Wm-Wb1-145" vertex="1" connectable="0">
          <mxGeometry x="-0.1548" y="-1" relative="1" as="geometry">
            <mxPoint x="25" y="-1" as="offset" />
          </mxGeometry>
        </mxCell>
        <mxCell id="Np-ABr15ij-Jm8Wm-Wb1-14" value="+4" style="rounded=0;whiteSpace=wrap;html=1;fillColor=#FFCCCC;container=0;fontSize=19;fontStyle=1" parent="Np-ABr15ij-Jm8Wm-Wb1-212" vertex="1">
          <mxGeometry x="211.66007905138338" y="104.43037974683544" width="49.80237154150197" height="83.54430379746836" as="geometry" />
        </mxCell>
        <mxCell id="Np-ABr15ij-Jm8Wm-Wb1-15" value="" style="endArrow=classic;html=1;rounded=0;entryX=1;entryY=0.5;entryDx=0;entryDy=0;strokeColor=light-dark(#FF0000,#EDEDED);strokeWidth=5;fontSize=19;fontStyle=1" parent="Np-ABr15ij-Jm8Wm-Wb1-212" target="Np-ABr15ij-Jm8Wm-Wb1-14" edge="1">
          <mxGeometry width="50" height="50" relative="1" as="geometry">
            <mxPoint x="385.9683794466403" y="547.2151898734178" as="sourcePoint" />
            <mxPoint x="460.67193675889325" y="480.37974683544303" as="targetPoint" />
            <Array as="points">
              <mxPoint x="385.9683794466403" y="547.2151898734178" />
              <mxPoint x="385.9683794466403" y="146.20253164556962" />
            </Array>
          </mxGeometry>
        </mxCell>
        <mxCell id="Np-ABr15ij-Jm8Wm-Wb1-8" value="" style="endArrow=classic;html=1;rounded=0;exitX=0;exitY=0.5;exitDx=0;exitDy=0;strokeColor=light-dark(#FF0000,#EDEDED);strokeWidth=5;fontSize=19;fontStyle=1" parent="Np-ABr15ij-Jm8Wm-Wb1-212" source="Np-ABr15ij-Jm8Wm-Wb1-14" edge="1">
          <mxGeometry width="50" height="50" relative="1" as="geometry">
            <mxPoint x="12.4505928853755" y="438.6075949367089" as="sourcePoint" />
            <mxPoint x="150" y="439" as="targetPoint" />
            <Array as="points">
              <mxPoint x="87.15415019762845" y="146.20253164556962" />
              <mxPoint x="87.15415019762845" y="438.6075949367089" />
            </Array>
          </mxGeometry>
        </mxCell>
        <mxCell id="Np-ABr15ij-Jm8Wm-Wb1-149" value="pc_with_four_out" style="edgeLabel;align=center;verticalAlign=middle;resizable=0;points=[];labelBackgroundColor=none;fontStyle=1;fontSize=19;container=0;" parent="Np-ABr15ij-Jm8Wm-Wb1-8" vertex="1" connectable="0">
          <mxGeometry x="-0.7313" y="-1" relative="1" as="geometry">
            <mxPoint x="-17" y="-15" as="offset" />
          </mxGeometry>
        </mxCell>
        <mxCell id="Np-ABr15ij-Jm8Wm-Wb1-17" value="" style="group;fillColor=default;container=0;fontSize=19;fontStyle=1" parent="Np-ABr15ij-Jm8Wm-Wb1-212" vertex="1" connectable="0">
          <mxGeometry x="516.699604743083" y="438.6075949367089" width="174.3083003952569" height="459.49367088607596" as="geometry" />
        </mxCell>
        <mxCell id="Np-ABr15ij-Jm8Wm-Wb1-21" value="" style="group;fillColor=default;container=0;fontSize=19;fontStyle=1" parent="Np-ABr15ij-Jm8Wm-Wb1-212" vertex="1" connectable="0">
          <mxGeometry x="691.0079051383399" y="20.886075949367097" width="174.3083003952569" height="1629.113924050633" as="geometry" />
        </mxCell>
        <mxCell id="Np-ABr15ij-Jm8Wm-Wb1-25" value="" style="endArrow=classic;html=1;rounded=0;entryX=0.077;entryY=0.917;entryDx=0;entryDy=0;entryPerimeter=0;strokeColor=light-dark(#FF0000,#EDEDED);strokeWidth=5;fontSize=19;fontStyle=1" parent="Np-ABr15ij-Jm8Wm-Wb1-212" target="Np-ABr15ij-Jm8Wm-Wb1-22" edge="1">
          <mxGeometry width="50" height="50" relative="1" as="geometry">
            <mxPoint x="385.9683794466403" y="146.20253164556962" as="sourcePoint" />
            <mxPoint x="784.3873517786561" y="146.20253164556962" as="targetPoint" />
          </mxGeometry>
        </mxCell>
        <mxCell id="Np-ABr15ij-Jm8Wm-Wb1-35" value="" style="endArrow=none;html=1;rounded=0;exitX=0.308;exitY=-0.033;exitDx=0;exitDy=0;exitPerimeter=0;strokeColor=light-dark(#eeff00, #ededed);strokeWidth=5;fontSize=19;fontStyle=1" parent="Np-ABr15ij-Jm8Wm-Wb1-212" edge="1">
          <mxGeometry width="50" height="50" relative="1" as="geometry">
            <mxPoint x="779.701422924901" y="521.8031645569621" as="sourcePoint" />
            <mxPoint x="807.53" y="419.15" as="targetPoint" />
            <Array as="points">
              <mxPoint x="807.53" y="522.15" />
            </Array>
          </mxGeometry>
        </mxCell>
        <mxCell id="Np-ABr15ij-Jm8Wm-Wb1-36" value="&lt;span&gt;&lt;font&gt;decoder&lt;/font&gt;&lt;/span&gt;" style="rounded=0;whiteSpace=wrap;html=1;fillColor=#FFFFCC;container=0;fontSize=19;fontStyle=1" parent="Np-ABr15ij-Jm8Wm-Wb1-212" vertex="1">
          <mxGeometry x="1058.300395256917" y="1315.8227848101267" width="958.695652173913" height="250.63291139240508" as="geometry" />
        </mxCell>
        <mxCell id="Np-ABr15ij-Jm8Wm-Wb1-45" value="" style="endArrow=classic;html=1;rounded=0;strokeColor=#66CC00;strokeWidth=5;fontSize=19;fontStyle=1" parent="Np-ABr15ij-Jm8Wm-Wb1-212" target="Np-ABr15ij-Jm8Wm-Wb1-48" edge="1">
          <mxGeometry width="50" height="50" relative="1" as="geometry">
            <mxPoint x="1220.1581027667983" y="647.4683544303798" as="sourcePoint" />
            <mxPoint x="1269.9604743083003" y="229.74683544303798" as="targetPoint" />
            <Array as="points">
              <mxPoint x="1220.1581027667983" y="334.17721518987344" />
            </Array>
          </mxGeometry>
        </mxCell>
        <mxCell id="Np-ABr15ij-Jm8Wm-Wb1-46" value="" style="endArrow=classic;html=1;rounded=0;entryX=0.319;entryY=0.554;entryDx=0;entryDy=0;exitX=0.042;exitY=0;exitDx=0;exitDy=0;exitPerimeter=0;strokeColor=light-dark(#fbff00, #ededed);strokeWidth=5;entryPerimeter=0;fontSize=19;fontStyle=1" parent="Np-ABr15ij-Jm8Wm-Wb1-212" source="Np-ABr15ij-Jm8Wm-Wb1-27" target="Np-ABr15ij-Jm8Wm-Wb1-47" edge="1">
          <mxGeometry width="50" height="50" relative="1" as="geometry">
            <mxPoint x="1232.6086956521738" y="396.8354430379747" as="sourcePoint" />
            <mxPoint x="1282.4110671936758" y="355.0632911392405" as="targetPoint" />
          </mxGeometry>
        </mxCell>
        <mxCell id="Np-ABr15ij-Jm8Wm-Wb1-157" value="read_data_1" style="edgeLabel;align=center;verticalAlign=middle;resizable=0;points=[];fontSize=19;fontStyle=1;labelBackgroundColor=none;container=0;" parent="Np-ABr15ij-Jm8Wm-Wb1-46" vertex="1" connectable="0">
          <mxGeometry x="-0.2827" y="-1" relative="1" as="geometry">
            <mxPoint x="8" y="-15" as="offset" />
          </mxGeometry>
        </mxCell>
        <mxCell id="Np-ABr15ij-Jm8Wm-Wb1-66" value="" style="endArrow=classic;html=1;rounded=0;exitX=0.25;exitY=0;exitDx=0;exitDy=0;strokeColor=light-dark(#fbff00, #ededed);strokeWidth=5;fontSize=19;fontStyle=1" parent="Np-ABr15ij-Jm8Wm-Wb1-212" source="Np-ABr15ij-Jm8Wm-Wb1-27" edge="1">
          <mxGeometry width="50" height="50" relative="1" as="geometry">
            <mxPoint x="1195.2569169960473" y="522.1518987341772" as="sourcePoint" />
            <mxPoint x="1290" y="522" as="targetPoint" />
          </mxGeometry>
        </mxCell>
        <mxCell id="Np-ABr15ij-Jm8Wm-Wb1-158" value="read_data_2" style="edgeLabel;align=center;verticalAlign=middle;resizable=0;points=[];labelBackgroundColor=none;fontSize=19;fontStyle=1;container=0;" parent="Np-ABr15ij-Jm8Wm-Wb1-66" vertex="1" connectable="0">
          <mxGeometry x="-0.4777" y="2" relative="1" as="geometry">
            <mxPoint x="22" y="-12" as="offset" />
          </mxGeometry>
        </mxCell>
        <mxCell id="Np-ABr15ij-Jm8Wm-Wb1-74" value="" style="endArrow=classic;html=1;rounded=0;exitX=0.5;exitY=0;exitDx=0;exitDy=0;strokeColor=#CCCC00;strokeWidth=5;fontSize=19;fontStyle=1" parent="Np-ABr15ij-Jm8Wm-Wb1-212" source="Np-ABr15ij-Jm8Wm-Wb1-44" edge="1">
          <mxGeometry width="50" height="50" relative="1" as="geometry">
            <mxPoint x="1444.2687747035573" y="375.9493670886076" as="sourcePoint" />
            <mxPoint x="1530" y="376" as="targetPoint" />
          </mxGeometry>
        </mxCell>
        <mxCell id="Np-ABr15ij-Jm8Wm-Wb1-161" value="data_1" style="edgeLabel;html=1;align=center;verticalAlign=middle;resizable=0;points=[];fontStyle=1;fontSize=19;container=0;" parent="Np-ABr15ij-Jm8Wm-Wb1-74" vertex="1" connectable="0">
          <mxGeometry x="-0.1585" y="1" relative="1" as="geometry">
            <mxPoint x="-3" y="-12" as="offset" />
          </mxGeometry>
        </mxCell>
        <mxCell id="Np-ABr15ij-Jm8Wm-Wb1-73" value="" style="endArrow=classic;html=1;rounded=0;exitX=0.077;exitY=0.033;exitDx=0;exitDy=0;exitPerimeter=0;strokeColor=#FFF700;strokeWidth=5;fontSize=19;fontStyle=1" parent="Np-ABr15ij-Jm8Wm-Wb1-212" source="Np-ABr15ij-Jm8Wm-Wb1-22" edge="1">
          <mxGeometry width="50" height="50" relative="1" as="geometry">
            <mxPoint x="1444.2687747035573" y="276.74050632911394" as="sourcePoint" />
            <mxPoint x="1540" y="278" as="targetPoint" />
            <Array as="points">
              <mxPoint x="1469.1699604743083" y="146.20253164556962" />
              <mxPoint x="1469.1699604743083" y="277.7848101265823" />
            </Array>
          </mxGeometry>
        </mxCell>
        <mxCell id="Np-ABr15ij-Jm8Wm-Wb1-152" value="pc_execute" style="edgeLabel;html=1;align=center;verticalAlign=middle;resizable=0;points=[];fontStyle=1;fontSize=19;container=0;" parent="Np-ABr15ij-Jm8Wm-Wb1-73" vertex="1" connectable="0">
          <mxGeometry x="-0.8191" y="5" relative="1" as="geometry">
            <mxPoint y="-11" as="offset" />
          </mxGeometry>
        </mxCell>
        <mxCell id="Np-ABr15ij-Jm8Wm-Wb1-95" value="" style="endArrow=none;html=1;rounded=0;movable=1;resizable=1;rotatable=1;deletable=1;editable=1;locked=0;connectable=1;flowAnimation=0;shadow=0;fillColor=#fff2cc;strokeColor=#d6b656;strokeWidth=12;fontSize=19;fontStyle=1" parent="Np-ABr15ij-Jm8Wm-Wb1-212" edge="1">
          <mxGeometry width="50" height="50" relative="1" as="geometry">
            <mxPoint x="1718.181818181818" y="250.63291139240508" as="sourcePoint" />
            <mxPoint x="1718.181818181818" y="250.63291139240508" as="targetPoint" />
            <Array as="points">
              <mxPoint x="1867.588932806324" y="417.72151898734177" />
              <mxPoint x="1867.588932806324" y="501.26582278481015" />
              <mxPoint x="1718.181818181818" y="668.3544303797469" />
              <mxPoint x="1718.181818181818" y="543.0379746835443" />
              <mxPoint x="1780.4347826086955" y="501.26582278481015" />
              <mxPoint x="1780.4347826086955" y="417.72151898734177" />
              <mxPoint x="1718.181818181818" y="375.9493670886076" />
            </Array>
          </mxGeometry>
        </mxCell>
        <mxCell id="Np-ABr15ij-Jm8Wm-Wb1-100" value="" style="endArrow=classic;html=1;rounded=0;entryX=0.089;entryY=1;entryDx=0;entryDy=0;entryPerimeter=0;strokeColor=#FFF700;strokeWidth=5;fontSize=19;fontStyle=1" parent="Np-ABr15ij-Jm8Wm-Wb1-212" target="Np-ABr15ij-Jm8Wm-Wb1-97" edge="1">
          <mxGeometry width="50" height="50" relative="1" as="geometry">
            <mxPoint x="1469.1699604743083" y="146.20253164556962" as="sourcePoint" />
            <mxPoint x="1494.0711462450593" y="375.9493670886076" as="targetPoint" />
          </mxGeometry>
        </mxCell>
        <mxCell id="Np-ABr15ij-Jm8Wm-Wb1-101" value="" style="endArrow=classic;html=1;rounded=0;entryX=-0.003;entryY=0.43;entryDx=0;entryDy=0;entryPerimeter=0;strokeColor=light-dark(#FFF700,#EDEDED);strokeWidth=5;fontSize=19;fontStyle=1" parent="Np-ABr15ij-Jm8Wm-Wb1-212" target="Np-ABr15ij-Jm8Wm-Wb1-36" edge="1">
          <mxGeometry width="50" height="50" relative="1" as="geometry">
            <mxPoint x="810" y="522" as="sourcePoint" />
            <mxPoint x="1494.0711462450593" y="856.3291139240506" as="targetPoint" />
            <Array as="points">
              <mxPoint x="810" y="1424" />
            </Array>
          </mxGeometry>
        </mxCell>
        <mxCell id="Np-ABr15ij-Jm8Wm-Wb1-179" value="pipe_line_instruction" style="edgeLabel;align=center;verticalAlign=middle;resizable=0;points=[];rotation=90;labelBackgroundColor=none;fontSize=20;fontStyle=1;container=0;" parent="Np-ABr15ij-Jm8Wm-Wb1-101" vertex="1" connectable="0">
          <mxGeometry x="-0.4355" y="-6" relative="1" as="geometry">
            <mxPoint as="offset" />
          </mxGeometry>
        </mxCell>
        <mxCell id="Np-ABr15ij-Jm8Wm-Wb1-102" value="" style="endArrow=classic;html=1;rounded=0;strokeColor=light-dark(#f8fc03, #ededed);strokeWidth=5;fontSize=19;fontStyle=1" parent="Np-ABr15ij-Jm8Wm-Wb1-212" edge="1">
          <mxGeometry width="50" height="50" relative="1" as="geometry">
            <mxPoint x="810" y="1253" as="sourcePoint" />
            <mxPoint x="2166.403162055336" y="1253.1645569620252" as="targetPoint" />
          </mxGeometry>
        </mxCell>
        <mxCell id="Np-ABr15ij-Jm8Wm-Wb1-103" value="" style="endArrow=classic;html=1;rounded=0;entryX=0.393;entryY=0.971;entryDx=0;entryDy=0;entryPerimeter=0;exitX=0.908;exitY=0.001;exitDx=0;exitDy=0;exitPerimeter=0;strokeColor=#999900;strokeWidth=5;fontSize=19;fontStyle=1" parent="Np-ABr15ij-Jm8Wm-Wb1-212" source="Np-ABr15ij-Jm8Wm-Wb1-36" target="Np-ABr15ij-Jm8Wm-Wb1-97" edge="1">
          <mxGeometry width="50" height="50" relative="1" as="geometry">
            <mxPoint x="1929.8418972332015" y="1309.5569620253166" as="sourcePoint" />
            <mxPoint x="1842.687747035573" y="856.3291139240506" as="targetPoint" />
            <Array as="points">
              <mxPoint x="1929.8418972332015" y="647.4683544303798" />
            </Array>
          </mxGeometry>
        </mxCell>
        <mxCell id="Np-ABr15ij-Jm8Wm-Wb1-175" value="read_enable" style="edgeLabel;align=center;verticalAlign=middle;resizable=0;points=[];labelBackgroundColor=none;fontStyle=1;fontSize=19;container=0;" parent="Np-ABr15ij-Jm8Wm-Wb1-103" vertex="1" connectable="0">
          <mxGeometry x="0.735" relative="1" as="geometry">
            <mxPoint x="2" y="-19" as="offset" />
          </mxGeometry>
        </mxCell>
        <mxCell id="Np-ABr15ij-Jm8Wm-Wb1-104" value="" style="endArrow=classic;html=1;rounded=0;entryX=0.458;entryY=0.995;entryDx=0;entryDy=0;entryPerimeter=0;strokeColor=#999900;strokeWidth=5;exitX=0.935;exitY=0.017;exitDx=0;exitDy=0;exitPerimeter=0;fontSize=19;fontStyle=1" parent="Np-ABr15ij-Jm8Wm-Wb1-212" source="Np-ABr15ij-Jm8Wm-Wb1-36" target="Np-ABr15ij-Jm8Wm-Wb1-97" edge="1">
          <mxGeometry width="50" height="50" relative="1" as="geometry">
            <mxPoint x="1955" y="1310" as="sourcePoint" />
            <mxPoint x="2166.403162055336" y="835.4430379746835" as="targetPoint" />
            <Array as="points">
              <mxPoint x="1954.7430830039525" y="756.0759493670886" />
            </Array>
          </mxGeometry>
        </mxCell>
        <mxCell id="Np-ABr15ij-Jm8Wm-Wb1-176" value="write_enable" style="edgeLabel;align=center;verticalAlign=middle;resizable=0;points=[];labelBackgroundColor=none;fontSize=19;fontStyle=1;container=0;" parent="Np-ABr15ij-Jm8Wm-Wb1-104" vertex="1" connectable="0">
          <mxGeometry x="0.6603" y="4" relative="1" as="geometry">
            <mxPoint x="13" y="-12" as="offset" />
          </mxGeometry>
        </mxCell>
        <mxCell id="Np-ABr15ij-Jm8Wm-Wb1-109" value="" style="endArrow=classic;html=1;rounded=0;entryX=0.333;entryY=1.019;entryDx=0;entryDy=0;entryPerimeter=0;strokeColor=#FFF700;strokeWidth=5;fontSize=19;fontStyle=1" parent="Np-ABr15ij-Jm8Wm-Wb1-212" target="Np-ABr15ij-Jm8Wm-Wb1-97" edge="1">
          <mxGeometry width="50" height="50" relative="1" as="geometry">
            <mxPoint x="1406.9169960474308" y="563.9240506329114" as="sourcePoint" />
            <mxPoint x="2166.403162055336" y="668.3544303797469" as="targetPoint" />
            <Array as="points">
              <mxPoint x="1406.9169960474308" y="751.8987341772151" />
              <mxPoint x="1904.9407114624505" y="751.8987341772151" />
              <mxPoint x="1904.9407114624505" y="549.3037974683544" />
            </Array>
          </mxGeometry>
        </mxCell>
        <mxCell id="Np-ABr15ij-Jm8Wm-Wb1-107" value="" style="endArrow=classic;html=1;rounded=0;strokeColor=#00FF00;strokeWidth=5;fontSize=19;fontStyle=1" parent="Np-ABr15ij-Jm8Wm-Wb1-212" edge="1">
          <mxGeometry width="50" height="50" relative="1" as="geometry">
            <mxPoint x="2410" y="397" as="sourcePoint" />
            <mxPoint x="2552.371541501976" y="396.8354430379747" as="targetPoint" />
          </mxGeometry>
        </mxCell>
        <mxCell id="Np-ABr15ij-Jm8Wm-Wb1-110" value="" style="endArrow=classic;html=1;rounded=0;exitX=0.324;exitY=0.043;exitDx=0;exitDy=0;exitPerimeter=0;entryX=0.364;entryY=0.995;entryDx=0;entryDy=0;entryPerimeter=0;strokeColor=#00FF00;strokeWidth=5;fontSize=19;fontStyle=1" parent="Np-ABr15ij-Jm8Wm-Wb1-212" source="Np-ABr15ij-Jm8Wm-Wb1-97" target="Np-ABr15ij-Jm8Wm-Wb1-106" edge="1">
          <mxGeometry width="50" height="50" relative="1" as="geometry">
            <mxPoint x="2402.96442687747" y="584.8101265822785" as="sourcePoint" />
            <mxPoint x="2548.6363636363635" y="572.2784810126583" as="targetPoint" />
            <Array as="points" />
          </mxGeometry>
        </mxCell>
        <mxCell id="Np-ABr15ij-Jm8Wm-Wb1-182" value="wdata_mem" style="edgeLabel;align=center;verticalAlign=middle;resizable=0;points=[];labelBackgroundColor=none;fontSize=19;fontStyle=1;container=0;" parent="Np-ABr15ij-Jm8Wm-Wb1-110" vertex="1" connectable="0">
          <mxGeometry x="-0.5929" y="2" relative="1" as="geometry">
            <mxPoint x="8" y="-11" as="offset" />
          </mxGeometry>
        </mxCell>
        <mxCell id="Np-ABr15ij-Jm8Wm-Wb1-111" value="" style="endArrow=classic;html=1;rounded=0;exitX=0.393;exitY=-0.029;exitDx=0;exitDy=0;exitPerimeter=0;strokeColor=#00FF00;strokeWidth=5;fontSize=19;fontStyle=1" parent="Np-ABr15ij-Jm8Wm-Wb1-212" source="Np-ABr15ij-Jm8Wm-Wb1-97" edge="1">
          <mxGeometry width="50" height="50" relative="1" as="geometry">
            <mxPoint x="2253.5573122529645" y="1023.4177215189874" as="sourcePoint" />
            <mxPoint x="2552.371541501976" y="647.4683544303798" as="targetPoint" />
            <Array as="points" />
          </mxGeometry>
        </mxCell>
        <mxCell id="Np-ABr15ij-Jm8Wm-Wb1-183" value="rd_wr_mem_mem" style="edgeLabel;align=center;verticalAlign=middle;resizable=0;points=[];fontSize=19;fontStyle=1;labelBackgroundColor=none;container=0;" parent="Np-ABr15ij-Jm8Wm-Wb1-111" vertex="1" connectable="0">
          <mxGeometry x="-0.6976" y="4" relative="1" as="geometry">
            <mxPoint x="30" y="-15" as="offset" />
          </mxGeometry>
        </mxCell>
        <mxCell id="Np-ABr15ij-Jm8Wm-Wb1-112" value="" style="endArrow=classic;html=1;rounded=0;exitX=0.456;exitY=0.067;exitDx=0;exitDy=0;exitPerimeter=0;entryX=0.798;entryY=1.043;entryDx=0;entryDy=0;entryPerimeter=0;strokeColor=#00FF00;strokeWidth=5;fontSize=19;fontStyle=1" parent="Np-ABr15ij-Jm8Wm-Wb1-212" source="Np-ABr15ij-Jm8Wm-Wb1-97" target="Np-ABr15ij-Jm8Wm-Wb1-106" edge="1">
          <mxGeometry width="50" height="50" relative="1" as="geometry">
            <mxPoint x="1929.8418972332015" y="751.8987341772151" as="sourcePoint" />
            <mxPoint x="2552.371541501976" y="710.126582278481" as="targetPoint" />
            <Array as="points" />
          </mxGeometry>
        </mxCell>
        <mxCell id="Np-ABr15ij-Jm8Wm-Wb1-184" value="mem_wr_mem" style="edgeLabel;html=1;align=center;verticalAlign=middle;resizable=0;points=[];fontSize=19;fontStyle=1;container=0;" parent="Np-ABr15ij-Jm8Wm-Wb1-112" vertex="1" connectable="0">
          <mxGeometry x="-0.4705" y="2" relative="1" as="geometry">
            <mxPoint x="-9" y="-11" as="offset" />
          </mxGeometry>
        </mxCell>
        <mxCell id="Np-ABr15ij-Jm8Wm-Wb1-113" value="" style="endArrow=classic;html=1;rounded=0;entryX=1;entryY=0.5;entryDx=0;entryDy=0;strokeColor=light-dark(#00CC00,#EDEDED);strokeWidth=8;fontSize=19;fontStyle=1" parent="Np-ABr15ij-Jm8Wm-Wb1-212" target="Np-ABr15ij-Jm8Wm-Wb1-36" edge="1">
          <mxGeometry width="50" height="50" relative="1" as="geometry">
            <mxPoint x="2241.106719367589" y="1253.1645569620252" as="sourcePoint" />
            <mxPoint x="2303.359683794466" y="1148.73417721519" as="targetPoint" />
            <Array as="points">
              <mxPoint x="2502.569169960474" y="1253.1645569620252" />
              <mxPoint x="2502.569169960474" y="1441.139240506329" />
            </Array>
          </mxGeometry>
        </mxCell>
        <mxCell id="Np-ABr15ij-Jm8Wm-Wb1-190" value="instruction_mem" style="edgeLabel;align=center;verticalAlign=middle;resizable=0;points=[];labelBackgroundColor=none;fontSize=19;fontStyle=1;container=0;" parent="Np-ABr15ij-Jm8Wm-Wb1-113" vertex="1" connectable="0">
          <mxGeometry x="-0.8491" y="2" relative="1" as="geometry">
            <mxPoint x="18" y="-11" as="offset" />
          </mxGeometry>
        </mxCell>
        <mxCell id="Np-ABr15ij-Jm8Wm-Wb1-119" value="" style="endArrow=classic;rounded=0;exitX=0.339;exitY=0.005;exitDx=0;exitDy=0;exitPerimeter=0;strokeColor=#00FF00;strokeWidth=5;labelBackgroundColor=none;fontSize=19;fontStyle=1;entryX=0.251;entryY=0.446;entryDx=0;entryDy=0;entryPerimeter=0;" parent="Np-ABr15ij-Jm8Wm-Wb1-212" source="Np-ABr15ij-Jm8Wm-Wb1-106" target="Np-ABr15ij-Jm8Wm-Wb1-121" edge="1">
          <mxGeometry width="50" height="50" relative="1" as="geometry">
            <mxPoint x="2776.482213438735" y="501.26582278481015" as="sourcePoint" />
            <mxPoint x="2963.2411067193675" y="501.26582278481015" as="targetPoint" />
            <Array as="points">
              <mxPoint x="2813" y="525" />
              <mxPoint x="2813" y="386" />
            </Array>
          </mxGeometry>
        </mxCell>
        <mxCell id="Np-ABr15ij-Jm8Wm-Wb1-188" value="data_memory_output" style="edgeLabel;align=center;verticalAlign=middle;resizable=0;points=[];labelBackgroundColor=none;fontSize=19;fontStyle=1;container=0;" parent="Np-ABr15ij-Jm8Wm-Wb1-119" vertex="1" connectable="0">
          <mxGeometry x="-0.6336" y="3" relative="1" as="geometry">
            <mxPoint x="11" y="-8" as="offset" />
          </mxGeometry>
        </mxCell>
        <mxCell id="Np-ABr15ij-Jm8Wm-Wb1-126" value="+4" style="rounded=0;whiteSpace=wrap;html=1;fillColor=#CCFFCC;container=0;fontSize=19;fontStyle=1" parent="Np-ABr15ij-Jm8Wm-Wb1-212" vertex="1">
          <mxGeometry x="2502.569169960474" y="104.43037974683544" width="49.80237154150197" height="83.54430379746836" as="geometry" />
        </mxCell>
        <mxCell id="Np-ABr15ij-Jm8Wm-Wb1-127" value="" style="endArrow=classic;html=1;rounded=0;entryX=0;entryY=0.5;entryDx=0;entryDy=0;exitX=0.089;exitY=0;exitDx=0;exitDy=0;exitPerimeter=0;strokeColor=#00FF00;strokeWidth=5;fontSize=19;fontStyle=1" parent="Np-ABr15ij-Jm8Wm-Wb1-212" source="Np-ABr15ij-Jm8Wm-Wb1-97" target="Np-ABr15ij-Jm8Wm-Wb1-126" edge="1">
          <mxGeometry width="50" height="50" relative="1" as="geometry">
            <mxPoint x="1917.391304347826" y="689.2405063291139" as="sourcePoint" />
            <mxPoint x="1979.6442687747035" y="584.8101265822785" as="targetPoint" />
          </mxGeometry>
        </mxCell>
        <mxCell id="Np-ABr15ij-Jm8Wm-Wb1-180" value="pc_mem" style="edgeLabel;align=center;verticalAlign=middle;resizable=0;points=[];fontSize=19;fontStyle=1;labelBackgroundColor=none;container=0;" parent="Np-ABr15ij-Jm8Wm-Wb1-127" vertex="1" connectable="0">
          <mxGeometry x="-0.2562" y="3" relative="1" as="geometry">
            <mxPoint x="-28" y="-14" as="offset" />
          </mxGeometry>
        </mxCell>
        <mxCell id="Np-ABr15ij-Jm8Wm-Wb1-128" value="" style="endArrow=classic;html=1;rounded=0;exitX=0.971;exitY=-0.011;exitDx=0;exitDy=0;exitPerimeter=0;entryX=0.646;entryY=1;entryDx=0;entryDy=0;entryPerimeter=0;strokeColor=#999900;strokeWidth=5;fontSize=19;fontStyle=1" parent="Np-ABr15ij-Jm8Wm-Wb1-212" source="Np-ABr15ij-Jm8Wm-Wb1-36" target="Np-ABr15ij-Jm8Wm-Wb1-97" edge="1">
          <mxGeometry width="50" height="50" relative="1" as="geometry">
            <mxPoint x="2266.00790513834" y="731.0126582278481" as="sourcePoint" />
            <mxPoint x="2328.260869565217" y="626.5822784810126" as="targetPoint" />
            <Array as="points">
              <mxPoint x="1989.6047430830038" y="1065.1898734177216" />
            </Array>
          </mxGeometry>
        </mxCell>
        <mxCell id="Np-ABr15ij-Jm8Wm-Wb1-178" value="sel_dm" style="edgeLabel;align=center;verticalAlign=middle;resizable=0;points=[];labelBackgroundColor=none;fontSize=19;fontStyle=1;container=0;" parent="Np-ABr15ij-Jm8Wm-Wb1-128" vertex="1" connectable="0">
          <mxGeometry x="0.6558" y="6" relative="1" as="geometry">
            <mxPoint x="-23" y="-10" as="offset" />
          </mxGeometry>
        </mxCell>
        <mxCell id="Np-ABr15ij-Jm8Wm-Wb1-129" value="" style="endArrow=classic;html=1;rounded=0;exitX=0.642;exitY=-0.029;exitDx=0;exitDy=0;exitPerimeter=0;entryX=1;entryY=0.5;entryDx=0;entryDy=0;strokeColor=#00FF00;strokeWidth=5;fontSize=19;fontStyle=1" parent="Np-ABr15ij-Jm8Wm-Wb1-212" source="Np-ABr15ij-Jm8Wm-Wb1-97" target="Np-ABr15ij-Jm8Wm-Wb1-117" edge="1">
          <mxGeometry width="50" height="50" relative="1" as="geometry">
            <mxPoint x="2266.00790513834" y="731.0126582278481" as="sourcePoint" />
            <mxPoint x="2328.260869565217" y="626.5822784810126" as="targetPoint" />
            <Array as="points">
              <mxPoint x="2985.6521739130435" y="1058.9240506329113" />
            </Array>
          </mxGeometry>
        </mxCell>
        <mxCell id="Np-ABr15ij-Jm8Wm-Wb1-191" value="wb_sel_mem" style="edgeLabel;align=center;verticalAlign=middle;resizable=0;points=[];fontSize=19;labelBackgroundColor=none;fontStyle=1;container=0;" parent="Np-ABr15ij-Jm8Wm-Wb1-129" vertex="1" connectable="0">
          <mxGeometry x="-0.907" y="3" relative="1" as="geometry">
            <mxPoint x="12" y="-16" as="offset" />
          </mxGeometry>
        </mxCell>
        <mxCell id="Np-ABr15ij-Jm8Wm-Wb1-130" value="" style="endArrow=classic;html=1;rounded=0;exitX=0.872;exitY=0.028;exitDx=0;exitDy=0;exitPerimeter=0;entryX=0.519;entryY=0.944;entryDx=0;entryDy=0;entryPerimeter=0;strokeColor=#999900;strokeWidth=5;fontSize=19;fontStyle=1" parent="Np-ABr15ij-Jm8Wm-Wb1-212" source="Np-ABr15ij-Jm8Wm-Wb1-36" target="Np-ABr15ij-Jm8Wm-Wb1-97" edge="1">
          <mxGeometry width="50" height="50" relative="1" as="geometry">
            <mxPoint x="1070.7509881422925" y="751.8987341772151" as="sourcePoint" />
            <mxPoint x="1133.00395256917" y="647.4683544303798" as="targetPoint" />
            <Array as="points">
              <mxPoint x="1892.490118577075" y="856.3291139240506" />
            </Array>
          </mxGeometry>
        </mxCell>
        <mxCell id="Np-ABr15ij-Jm8Wm-Wb1-177" value="write_register_enable" style="edgeLabel;align=center;verticalAlign=middle;resizable=0;points=[];labelBackgroundColor=none;fontSize=19;fontStyle=1;container=0;" parent="Np-ABr15ij-Jm8Wm-Wb1-130" vertex="1" connectable="0">
          <mxGeometry x="0.6895" y="1" relative="1" as="geometry">
            <mxPoint x="-4" y="-17" as="offset" />
          </mxGeometry>
        </mxCell>
        <mxCell id="Np-ABr15ij-Jm8Wm-Wb1-131" value="&lt;span&gt;&lt;font&gt;branch condition&lt;/font&gt;&lt;/span&gt;" style="rounded=0;whiteSpace=wrap;html=1;fillColor=#FFFFCC;container=0;fontSize=19;fontStyle=1" parent="Np-ABr15ij-Jm8Wm-Wb1-212" vertex="1">
          <mxGeometry x="1599.9011857707508" y="772.7848101265823" width="149.4071146245059" height="125.31645569620254" as="geometry" />
        </mxCell>
        <mxCell id="Np-ABr15ij-Jm8Wm-Wb1-132" value="" style="endArrow=classic;html=1;rounded=0;entryX=0;entryY=0.75;entryDx=0;entryDy=0;strokeColor=#FFF700;strokeWidth=5;fontSize=19;fontStyle=1" parent="Np-ABr15ij-Jm8Wm-Wb1-212" target="Np-ABr15ij-Jm8Wm-Wb1-131" edge="1">
          <mxGeometry width="50" height="50" relative="1" as="geometry">
            <mxPoint x="1406.9169960474308" y="751.8987341772151" as="sourcePoint" />
            <mxPoint x="1792.885375494071" y="647.4683544303798" as="targetPoint" />
            <Array as="points">
              <mxPoint x="1406.9169960474308" y="866.7721518987341" />
            </Array>
          </mxGeometry>
        </mxCell>
        <mxCell id="Np-ABr15ij-Jm8Wm-Wb1-133" value="" style="endArrow=classic;html=1;rounded=0;entryX=0;entryY=0.25;entryDx=0;entryDy=0;strokeColor=#CCCC00;strokeWidth=5;fontSize=19;fontStyle=1" parent="Np-ABr15ij-Jm8Wm-Wb1-212" target="Np-ABr15ij-Jm8Wm-Wb1-131" edge="1">
          <mxGeometry width="50" height="50" relative="1" as="geometry">
            <mxPoint x="1444.2687747035573" y="375.9493670886076" as="sourcePoint" />
            <mxPoint x="1792.885375494071" y="647.4683544303798" as="targetPoint" />
            <Array as="points">
              <mxPoint x="1444.2687747035573" y="804.1139240506329" />
            </Array>
          </mxGeometry>
        </mxCell>
        <mxCell id="Np-ABr15ij-Jm8Wm-Wb1-134" value="" style="endArrow=classic;html=1;rounded=0;entryX=0.389;entryY=0.944;entryDx=0;entryDy=0;entryPerimeter=0;strokeColor=#FF8000;strokeWidth=5;fontSize=19;fontStyle=1" parent="Np-ABr15ij-Jm8Wm-Wb1-212" target="Np-ABr15ij-Jm8Wm-Wb1-131" edge="1">
          <mxGeometry width="50" height="50" relative="1" as="geometry">
            <mxPoint x="1655.9288537549405" y="1023.4177215189874" as="sourcePoint" />
            <mxPoint x="2203.7549407114625" y="647.4683544303798" as="targetPoint" />
          </mxGeometry>
        </mxCell>
        <mxCell id="Np-ABr15ij-Jm8Wm-Wb1-171" value="br_type" style="edgeLabel;align=center;verticalAlign=middle;resizable=0;points=[];fontStyle=1;fontSize=19;labelBackgroundColor=none;container=0;" parent="Np-ABr15ij-Jm8Wm-Wb1-134" vertex="1" connectable="0">
          <mxGeometry x="-0.0416" relative="1" as="geometry">
            <mxPoint x="46" as="offset" />
          </mxGeometry>
        </mxCell>
        <mxCell id="Np-ABr15ij-Jm8Wm-Wb1-135" value="" style="endArrow=classic;html=1;rounded=0;entryX=1;entryY=0.5;entryDx=0;entryDy=0;exitX=1;exitY=0.5;exitDx=0;exitDy=0;strokeColor=#FFF700;strokeWidth=7;fontSize=19;fontStyle=1" parent="Np-ABr15ij-Jm8Wm-Wb1-212" source="Np-ABr15ij-Jm8Wm-Wb1-131" target="Np-ABr15ij-Jm8Wm-Wb1-7" edge="1">
          <mxGeometry width="50" height="50" relative="1" as="geometry">
            <mxPoint x="2141.501976284585" y="751.8987341772151" as="sourcePoint" />
            <mxPoint x="2203.7549407114625" y="647.4683544303798" as="targetPoint" />
            <Array as="points">
              <mxPoint x="1805.3359683794465" y="835.4430379746835" />
              <mxPoint x="1805.3359683794465" y="1086.0759493670887" />
              <mxPoint x="168.08300395256916" y="1086.0759493670887" />
            </Array>
          </mxGeometry>
        </mxCell>
        <mxCell id="Np-ABr15ij-Jm8Wm-Wb1-172" value="br_taken" style="edgeLabel;align=center;verticalAlign=middle;resizable=0;points=[];fontStyle=1;fontSize=19;labelBackgroundColor=none;container=0;" parent="Np-ABr15ij-Jm8Wm-Wb1-135" vertex="1" connectable="0">
          <mxGeometry x="-0.9759" y="4" relative="1" as="geometry">
            <mxPoint x="12" y="-9" as="offset" />
          </mxGeometry>
        </mxCell>
        <mxCell id="Np-ABr15ij-Jm8Wm-Wb1-1" value="" style="rounded=0;whiteSpace=wrap;html=1;direction=south;fillColor=#FFCCCC;container=0;fontSize=19;fontStyle=1" parent="Np-ABr15ij-Jm8Wm-Wb1-212" vertex="1">
          <mxGeometry x="286.3636363636363" y="438.6075949367089" width="74.70355731225295" height="250.63291139240508" as="geometry" />
        </mxCell>
        <mxCell id="Np-ABr15ij-Jm8Wm-Wb1-2" value="" style="endArrow=classic;html=1;rounded=0;strokeColor=light-dark(#FF0000,#EDEDED);strokeWidth=5;fontSize=19;fontStyle=1" parent="Np-ABr15ij-Jm8Wm-Wb1-212" edge="1">
          <mxGeometry width="50" height="50" relative="1" as="geometry">
            <mxPoint x="186.7588932806324" y="501.26582278481015" as="sourcePoint" />
            <mxPoint x="286.3636363636363" y="501.26582278481015" as="targetPoint" />
          </mxGeometry>
        </mxCell>
        <mxCell id="Np-ABr15ij-Jm8Wm-Wb1-147" value="bc_pc_out" style="edgeLabel;align=center;verticalAlign=middle;resizable=0;points=[];labelBackgroundColor=none;fontSize=19;fontStyle=1;container=0;" parent="Np-ABr15ij-Jm8Wm-Wb1-2" vertex="1" connectable="0">
          <mxGeometry x="-0.0113" y="4" relative="1" as="geometry">
            <mxPoint x="1" y="-17" as="offset" />
          </mxGeometry>
        </mxCell>
        <mxCell id="Np-ABr15ij-Jm8Wm-Wb1-3" value="" style="triangle;whiteSpace=wrap;html=1;fillColor=none;container=0;fontSize=19;fontStyle=1" parent="Np-ABr15ij-Jm8Wm-Wb1-212" vertex="1">
          <mxGeometry x="286.3636363636363" y="626.5822784810126" width="24.901185770750985" height="62.65822784810127" as="geometry" />
        </mxCell>
        <mxCell id="Np-ABr15ij-Jm8Wm-Wb1-7" value="" style="shape=trapezoid;perimeter=trapezoidPerimeter;whiteSpace=wrap;html=1;fixedSize=1;direction=south;fillColor=#FFCCCC;container=0;fontSize=19;fontStyle=1" parent="Np-ABr15ij-Jm8Wm-Wb1-212" vertex="1">
          <mxGeometry x="149.4071146245059" y="375.9493670886076" width="37.35177865612648" height="250.63291139240508" as="geometry" />
        </mxCell>
        <mxCell id="Np-ABr15ij-Jm8Wm-Wb1-9" value="" style="endArrow=classic;html=1;rounded=0;strokeColor=#FFFF00;strokeWidth=7;fontSize=19;fontStyle=1" parent="Np-ABr15ij-Jm8Wm-Wb1-212" edge="1">
          <mxGeometry width="50" height="50" relative="1" as="geometry">
            <mxPoint x="2033.5968379446638" y="459.49367088607596" as="sourcePoint" />
            <mxPoint x="140" y="564" as="targetPoint" />
            <Array as="points">
              <mxPoint x="2033.181818181818" />
              <mxPoint />
              <mxPoint y="563.9240506329114" />
            </Array>
          </mxGeometry>
        </mxCell>
        <mxCell id="Np-ABr15ij-Jm8Wm-Wb1-10" value="0" style="text;html=1;align=center;verticalAlign=middle;whiteSpace=wrap;rounded=0;container=0;fontSize=19;fontStyle=1" parent="Np-ABr15ij-Jm8Wm-Wb1-212" vertex="1">
          <mxGeometry x="130.7312252964427" y="417.72151898734177" width="74.70355731225295" height="62.65822784810127" as="geometry" />
        </mxCell>
        <mxCell id="Np-ABr15ij-Jm8Wm-Wb1-11" value="1" style="text;html=1;align=center;verticalAlign=middle;whiteSpace=wrap;rounded=0;container=0;fontSize=19;fontStyle=1" parent="Np-ABr15ij-Jm8Wm-Wb1-212" vertex="1">
          <mxGeometry x="130.7312252964427" y="522.1518987341772" width="74.70355731225295" height="62.65822784810127" as="geometry" />
        </mxCell>
        <mxCell id="Np-ABr15ij-Jm8Wm-Wb1-18" value="" style="rounded=0;whiteSpace=wrap;html=1;direction=south;fillColor=#FFCCCC;container=0;fontSize=19;fontStyle=1" parent="Np-ABr15ij-Jm8Wm-Wb1-212" vertex="1">
          <mxGeometry x="525.0043478260869" y="428.1675949367089" width="74.70355731225295" height="459.49367088607596" as="geometry" />
        </mxCell>
        <mxCell id="Np-ABr15ij-Jm8Wm-Wb1-19" value="" style="endArrow=classic;html=1;rounded=0;exitX=0.45;exitY=0.067;exitDx=0;exitDy=0;exitPerimeter=0;strokeColor=light-dark(#FF0000,#EDEDED);strokeWidth=5;fontSize=19;fontStyle=1" parent="Np-ABr15ij-Jm8Wm-Wb1-212" source="Np-ABr15ij-Jm8Wm-Wb1-1" edge="1">
          <mxGeometry width="50" height="50" relative="1" as="geometry">
            <mxPoint x="516.699604743083" y="553.4810126582279" as="sourcePoint" />
            <mxPoint x="525" y="553" as="targetPoint" />
          </mxGeometry>
        </mxCell>
        <mxCell id="Np-ABr15ij-Jm8Wm-Wb1-148" value="         pc_next" style="edgeLabel;align=center;verticalAlign=middle;resizable=0;points=[];labelBackgroundColor=none;fontSize=19;fontStyle=1;container=0;" parent="Np-ABr15ij-Jm8Wm-Wb1-19" vertex="1" connectable="0">
          <mxGeometry x="-0.4318" y="1" relative="1" as="geometry">
            <mxPoint y="-18" as="offset" />
          </mxGeometry>
        </mxCell>
        <mxCell id="Np-ABr15ij-Jm8Wm-Wb1-20" value="" style="triangle;whiteSpace=wrap;html=1;fillColor=#FFCCCC;container=0;fontSize=19;fontStyle=1" parent="Np-ABr15ij-Jm8Wm-Wb1-212" vertex="1">
          <mxGeometry x="525.0043478260869" y="825.0030379746835" width="24.901185770750985" height="62.65822784810127" as="geometry" />
        </mxCell>
        <mxCell id="Np-ABr15ij-Jm8Wm-Wb1-22" value="" style="rounded=0;whiteSpace=wrap;html=1;direction=south;fillColor=#FFFF00;fillStyle=dots;container=0;fontSize=19;fontStyle=1" parent="Np-ABr15ij-Jm8Wm-Wb1-212" vertex="1">
          <mxGeometry x="705.0026482213439" y="20.886075949367097" width="74.70355731225295" height="1629.113924050633" as="geometry" />
        </mxCell>
        <mxCell id="Np-ABr15ij-Jm8Wm-Wb1-23" value="" style="endArrow=classic;html=1;rounded=0;strokeColor=light-dark(#FF0000,#EDEDED);strokeWidth=5;entryX=0.324;entryY=0.994;entryDx=0;entryDy=0;entryPerimeter=0;fontSize=19;fontStyle=1" parent="Np-ABr15ij-Jm8Wm-Wb1-212" target="Np-ABr15ij-Jm8Wm-Wb1-22" edge="1">
          <mxGeometry width="50" height="50" relative="1" as="geometry">
            <mxPoint x="599.9979051383399" y="550.0018987341772" as="sourcePoint" />
            <mxPoint x="699.6026482213439" y="550.0018987341772" as="targetPoint" />
          </mxGeometry>
        </mxCell>
        <mxCell id="Np-ABr15ij-Jm8Wm-Wb1-150" value="&lt;div style=&quot;font-family: Consolas, &amp;quot;Courier New&amp;quot;, monospace; line-height: 19px; white-space-collapse: preserve;&quot;&gt;&lt;font style=&quot;&quot;&gt;machine_code&lt;/font&gt;&lt;/div&gt;" style="edgeLabel;html=1;align=center;verticalAlign=middle;resizable=0;points=[];fontStyle=1;fontSize=19;container=0;" parent="Np-ABr15ij-Jm8Wm-Wb1-23" vertex="1" connectable="0">
          <mxGeometry x="-0.0423" y="3" relative="1" as="geometry">
            <mxPoint x="-1" y="-11" as="offset" />
          </mxGeometry>
        </mxCell>
        <mxCell id="Np-ABr15ij-Jm8Wm-Wb1-24" value="" style="triangle;whiteSpace=wrap;html=1;fillColor=none;container=0;fontSize=19;fontStyle=1" parent="Np-ABr15ij-Jm8Wm-Wb1-212" vertex="1">
          <mxGeometry x="705.0026482213439" y="1545.5696202531647" width="24.901185770750985" height="104.43037974683544" as="geometry" />
        </mxCell>
        <mxCell id="Np-ABr15ij-Jm8Wm-Wb1-27" value="" style="rounded=0;whiteSpace=wrap;html=1;direction=south;container=0;fillColor=#FFFFCC;fontSize=19;fontStyle=1" parent="Np-ABr15ij-Jm8Wm-Wb1-212" vertex="1">
          <mxGeometry x="1058.300395256917" y="396.8354430379747" width="74.70355731225295" height="501.26582278481015" as="geometry" />
        </mxCell>
        <mxCell id="Np-ABr15ij-Jm8Wm-Wb1-28" value="" style="endArrow=classic;html=1;rounded=0;strokeColor=light-dark(#fbff00, #ededed);strokeWidth=5;fontSize=19;fontStyle=1" parent="Np-ABr15ij-Jm8Wm-Wb1-212" edge="1">
          <mxGeometry width="50" height="50" relative="1" as="geometry">
            <mxPoint x="800" y="520" as="sourcePoint" />
            <mxPoint x="1058.300395256917" y="522.141611562441" as="targetPoint" />
          </mxGeometry>
        </mxCell>
        <mxCell id="Np-ABr15ij-Jm8Wm-Wb1-153" value="read_address_2=pipe_line_instruction [24:20]" style="edgeLabel;align=center;verticalAlign=middle;resizable=0;points=[];labelBackgroundColor=none;fontSize=16;fontStyle=1;container=0;" parent="Np-ABr15ij-Jm8Wm-Wb1-28" vertex="1" connectable="0">
          <mxGeometry x="-0.2288" y="5" relative="1" as="geometry">
            <mxPoint x="50" y="-11" as="offset" />
          </mxGeometry>
        </mxCell>
        <mxCell id="Np-ABr15ij-Jm8Wm-Wb1-29" value="" style="triangle;whiteSpace=wrap;html=1;container=0;fillColor=none;fontSize=19;fontStyle=1" parent="Np-ABr15ij-Jm8Wm-Wb1-212" vertex="1">
          <mxGeometry x="1058.300395256917" y="837.9493670886076" width="24.901185770750985" height="60.15189873417722" as="geometry" />
        </mxCell>
        <mxCell id="Np-ABr15ij-Jm8Wm-Wb1-31" value="" style="endArrow=classic;html=1;rounded=0;labelBackgroundColor=none;strokeColor=#66CC00;strokeWidth=8;fontSize=19;fontStyle=1" parent="Np-ABr15ij-Jm8Wm-Wb1-212" edge="1">
          <mxGeometry width="50" height="50" relative="1" as="geometry">
            <mxPoint x="3013.0434782608695" y="403.1012658227848" as="sourcePoint" />
            <mxPoint x="1058.300395256917" y="710.1253353485737" as="targetPoint" />
            <Array as="points">
              <mxPoint x="3150" y="403.1012658227848" />
              <mxPoint x="3150" y="918.9873417721519" />
              <mxPoint x="853" y="930" />
              <mxPoint x="853" y="710" />
            </Array>
          </mxGeometry>
        </mxCell>
        <mxCell id="Np-ABr15ij-Jm8Wm-Wb1-189" value="write_back_data" style="edgeLabel;align=center;verticalAlign=middle;resizable=0;points=[];labelBackgroundColor=none;fontSize=19;fontStyle=1;container=0;" parent="Np-ABr15ij-Jm8Wm-Wb1-31" vertex="1" connectable="0">
          <mxGeometry x="-0.9558" y="1" relative="1" as="geometry">
            <mxPoint x="3" y="-16" as="offset" />
          </mxGeometry>
        </mxCell>
        <mxCell id="Np-ABr15ij-Jm8Wm-Wb1-32" value="" style="endArrow=classic;html=1;rounded=0;strokeColor=light-dark(#FFF700,#EDEDED);strokeWidth=5;fontSize=19;fontStyle=1" parent="Np-ABr15ij-Jm8Wm-Wb1-212" edge="1">
          <mxGeometry width="50" height="50" relative="1" as="geometry">
            <mxPoint x="810" y="427" as="sourcePoint" />
            <mxPoint x="1058.300395256917" y="426.7617608161723" as="targetPoint" />
          </mxGeometry>
        </mxCell>
        <mxCell id="Np-ABr15ij-Jm8Wm-Wb1-156" value="read_address_1=pipe_line_instruction [19:15]" style="edgeLabel;align=center;verticalAlign=middle;resizable=0;points=[];labelBackgroundColor=none;fontStyle=1;fontSize=15;container=0;" parent="Np-ABr15ij-Jm8Wm-Wb1-32" vertex="1" connectable="0">
          <mxGeometry x="-0.0706" y="2" relative="1" as="geometry">
            <mxPoint x="22" y="-18" as="offset" />
          </mxGeometry>
        </mxCell>
        <mxCell id="Np-ABr15ij-Jm8Wm-Wb1-30" value="" style="endArrow=classic;html=1;rounded=0;strokeColor=light-dark(#00CC00,#EDEDED);strokeWidth=8;fontSize=19;fontStyle=1" parent="Np-ABr15ij-Jm8Wm-Wb1-212" edge="1">
          <mxGeometry width="50" height="50" relative="1" as="geometry">
            <mxPoint x="2066.798418972332" y="1441.139240506329" as="sourcePoint" />
            <mxPoint x="1058.300395256917" y="646.4277914226336" as="targetPoint" />
            <Array as="points">
              <mxPoint x="2066.798418972332" y="1211.392405063291" />
              <mxPoint x="830" y="1211" />
              <mxPoint x="830" y="646" />
            </Array>
          </mxGeometry>
        </mxCell>
        <mxCell id="Np-ABr15ij-Jm8Wm-Wb1-192" value="write_address=pipe_line_instruction [11:7]" style="edgeLabel;align=center;verticalAlign=middle;resizable=0;points=[];labelBackgroundColor=none;fontSize=19;fontStyle=1;container=0;" parent="Np-ABr15ij-Jm8Wm-Wb1-30" vertex="1" connectable="0">
          <mxGeometry x="0.8917" y="6" relative="1" as="geometry">
            <mxPoint x="20" y="-17" as="offset" />
          </mxGeometry>
        </mxCell>
        <mxCell id="Np-ABr15ij-Jm8Wm-Wb1-33" value="" style="endArrow=classic;html=1;rounded=0;exitX=0.515;exitY=0;exitDx=0;exitDy=0;exitPerimeter=0;strokeColor=#00FF00;strokeWidth=8;fontSize=19;fontStyle=1" parent="Np-ABr15ij-Jm8Wm-Wb1-212" source="Np-ABr15ij-Jm8Wm-Wb1-97" edge="1">
          <mxGeometry width="50" height="50" relative="1" as="geometry">
            <mxPoint x="1008.498023715415" y="785.3164556962025" as="sourcePoint" />
            <mxPoint x="1058.300395256917" y="785.8775741545438" as="targetPoint" />
            <Array as="points">
              <mxPoint x="2402.96442687747" y="850.0632911392405" />
              <mxPoint x="2402.96442687747" y="981.6455696202531" />
              <mxPoint x="873" y="1000" />
              <mxPoint x="873" y="786" />
            </Array>
          </mxGeometry>
        </mxCell>
        <mxCell id="Np-ABr15ij-Jm8Wm-Wb1-186" value="reg_wr_mem" style="edgeLabel;align=center;verticalAlign=middle;resizable=0;points=[];labelBackgroundColor=none;fontSize=19;fontStyle=1;container=0;" parent="Np-ABr15ij-Jm8Wm-Wb1-33" vertex="1" connectable="0">
          <mxGeometry x="-0.9279" y="4" relative="1" as="geometry">
            <mxPoint x="-13" y="-10" as="offset" />
          </mxGeometry>
        </mxCell>
        <mxCell id="Np-ABr15ij-Jm8Wm-Wb1-194" value="write_register_enable=reg_wr_mem" style="edgeLabel;align=center;verticalAlign=middle;resizable=0;points=[];labelBackgroundColor=none;fontSize=19;fontStyle=1;container=0;" parent="Np-ABr15ij-Jm8Wm-Wb1-33" vertex="1" connectable="0">
          <mxGeometry x="0.9165" y="1" relative="1" as="geometry">
            <mxPoint x="62" y="-13" as="offset" />
          </mxGeometry>
        </mxCell>
        <mxCell id="Np-ABr15ij-Jm8Wm-Wb1-44" value="" style="shape=trapezoid;perimeter=trapezoidPerimeter;whiteSpace=wrap;html=1;fixedSize=1;direction=south;fillColor=#FFFFCC;container=0;fontSize=19;fontStyle=1" parent="Np-ABr15ij-Jm8Wm-Wb1-212" vertex="1">
          <mxGeometry x="1286.5612648221343" y="292.40506329113924" width="24.901185770750985" height="167.08860759493672" as="geometry" />
        </mxCell>
        <mxCell id="Np-ABr15ij-Jm8Wm-Wb1-48" value="1" style="text;html=1;align=center;verticalAlign=middle;whiteSpace=wrap;rounded=0;container=0;fontSize=19;fontStyle=1" parent="Np-ABr15ij-Jm8Wm-Wb1-212" vertex="1">
          <mxGeometry x="1274.1106719367588" y="313.28417721518986" width="49.80237154150197" height="41.77215189873418" as="geometry" />
        </mxCell>
        <mxCell id="Np-ABr15ij-Jm8Wm-Wb1-47" value="0" style="text;html=1;align=center;verticalAlign=middle;whiteSpace=wrap;rounded=0;container=0;fontSize=19;fontStyle=1" parent="Np-ABr15ij-Jm8Wm-Wb1-212" vertex="1">
          <mxGeometry x="1274.1106719367588" y="396.84240506329115" width="49.80237154150197" height="41.77215189873418" as="geometry" />
        </mxCell>
        <mxCell id="Np-ABr15ij-Jm8Wm-Wb1-65" value="" style="shape=trapezoid;perimeter=trapezoidPerimeter;whiteSpace=wrap;html=1;fixedSize=1;direction=south;fillColor=#FFFFCC;container=0;fontSize=19;fontStyle=1" parent="Np-ABr15ij-Jm8Wm-Wb1-212" vertex="1">
          <mxGeometry x="1286.5612648221345" y="480.37974683544303" width="24.901185770750985" height="167.08860759493672" as="geometry" />
        </mxCell>
        <mxCell id="Np-ABr15ij-Jm8Wm-Wb1-67" value="" style="endArrow=classic;html=1;rounded=0;strokeColor=#66CC00;strokeWidth=5;fontSize=19;fontStyle=1" parent="Np-ABr15ij-Jm8Wm-Wb1-212" edge="1">
          <mxGeometry width="50" height="50" relative="1" as="geometry">
            <mxPoint x="1220.1581027667983" y="918.9873417721519" as="sourcePoint" />
            <mxPoint x="1280" y="606" as="targetPoint" />
            <Array as="points">
              <mxPoint x="1220.1581027667983" y="605.6962025316456" />
            </Array>
          </mxGeometry>
        </mxCell>
        <mxCell id="Np-ABr15ij-Jm8Wm-Wb1-68" value="0" style="text;html=1;align=center;verticalAlign=middle;whiteSpace=wrap;rounded=0;container=0;fontSize=19;fontStyle=1" parent="Np-ABr15ij-Jm8Wm-Wb1-212" vertex="1">
          <mxGeometry x="1274.1106719367588" y="508.22784810126586" width="49.80237154150197" height="41.77215189873418" as="geometry" />
        </mxCell>
        <mxCell id="Np-ABr15ij-Jm8Wm-Wb1-69" value="1" style="text;html=1;align=center;verticalAlign=middle;whiteSpace=wrap;rounded=0;container=0;fontSize=19;fontStyle=1" parent="Np-ABr15ij-Jm8Wm-Wb1-212" vertex="1">
          <mxGeometry x="1274.1106719367588" y="577.8481012658227" width="49.80237154150197" height="41.77215189873418" as="geometry" />
        </mxCell>
        <mxCell id="Np-ABr15ij-Jm8Wm-Wb1-70" value="" style="endArrow=classic;html=1;rounded=0;entryX=0.167;entryY=0.444;entryDx=0;entryDy=0;entryPerimeter=0;strokeColor=#FFF700;strokeWidth=5;fontSize=19;fontStyle=1" parent="Np-ABr15ij-Jm8Wm-Wb1-212" target="Np-ABr15ij-Jm8Wm-Wb1-90" edge="1">
          <mxGeometry width="50" height="50" relative="1" as="geometry">
            <mxPoint x="1311.4624505928855" y="563.9240506329114" as="sourcePoint" />
            <mxPoint x="1394.4664031620553" y="563.9240506329114" as="targetPoint" />
          </mxGeometry>
        </mxCell>
        <mxCell id="Np-ABr15ij-Jm8Wm-Wb1-162" value="data_2" style="edgeLabel;html=1;align=center;verticalAlign=middle;resizable=0;points=[];fontStyle=1;fontSize=19;container=0;" parent="Np-ABr15ij-Jm8Wm-Wb1-70" vertex="1" connectable="0">
          <mxGeometry x="-0.2924" y="3" relative="1" as="geometry">
            <mxPoint y="-11" as="offset" />
          </mxGeometry>
        </mxCell>
        <mxCell id="Np-ABr15ij-Jm8Wm-Wb1-72" value="" style="shape=trapezoid;perimeter=trapezoidPerimeter;whiteSpace=wrap;html=1;fixedSize=1;direction=south;fillColor=#FFFFCC;container=0;fontSize=19;fontStyle=1" parent="Np-ABr15ij-Jm8Wm-Wb1-212" vertex="1">
          <mxGeometry x="1535.573122529644" y="229.74683544303798" width="24.901185770750985" height="187.9746835443038" as="geometry" />
        </mxCell>
        <mxCell id="Np-ABr15ij-Jm8Wm-Wb1-76" value="1" style="text;html=1;align=center;verticalAlign=middle;whiteSpace=wrap;rounded=0;container=0;fontSize=19;fontStyle=1" parent="Np-ABr15ij-Jm8Wm-Wb1-212" vertex="1">
          <mxGeometry x="1523.1225296442685" y="261.0759493670886" width="49.80237154150197" height="46.99367088607595" as="geometry" />
        </mxCell>
        <mxCell id="Np-ABr15ij-Jm8Wm-Wb1-77" value="" style="endArrow=classic;html=1;rounded=0;strokeColor=#FFF700;strokeWidth=5;fontSize=19;fontStyle=1" parent="Np-ABr15ij-Jm8Wm-Wb1-212" edge="1">
          <mxGeometry width="50" height="50" relative="1" as="geometry">
            <mxPoint x="1560.474308300395" y="323.7341772151899" as="sourcePoint" />
            <mxPoint x="1718.181818181818" y="323.7341772151899" as="targetPoint" />
          </mxGeometry>
        </mxCell>
        <mxCell id="Np-ABr15ij-Jm8Wm-Wb1-166" value="a" style="edgeLabel;html=1;align=center;verticalAlign=middle;resizable=0;points=[];fontStyle=1;fontSize=19;container=0;" parent="Np-ABr15ij-Jm8Wm-Wb1-77" vertex="1" connectable="0">
          <mxGeometry x="-0.0825" y="1" relative="1" as="geometry">
            <mxPoint x="-2" y="-15" as="offset" />
          </mxGeometry>
        </mxCell>
        <mxCell id="Np-ABr15ij-Jm8Wm-Wb1-75" value="0" style="text;html=1;align=center;verticalAlign=middle;whiteSpace=wrap;rounded=0;container=0;fontSize=19;fontStyle=1" parent="Np-ABr15ij-Jm8Wm-Wb1-212" vertex="1">
          <mxGeometry x="1523.1225296442685" y="339.3987341772152" width="49.80237154150197" height="46.99367088607595" as="geometry" />
        </mxCell>
        <mxCell id="Np-ABr15ij-Jm8Wm-Wb1-86" value="" style="shape=trapezoid;perimeter=trapezoidPerimeter;whiteSpace=wrap;html=1;fixedSize=1;direction=south;fillColor=#FFFFCC;container=0;fontSize=19;fontStyle=1" parent="Np-ABr15ij-Jm8Wm-Wb1-212" vertex="1">
          <mxGeometry x="1535.573122529644" y="501.26582278481015" width="24.901185770750985" height="187.9746835443038" as="geometry" />
        </mxCell>
        <mxCell id="Np-ABr15ij-Jm8Wm-Wb1-89" value="" style="endArrow=classic;html=1;rounded=0;strokeColor=#FFF700;strokeWidth=5;fontSize=19;fontStyle=1" parent="Np-ABr15ij-Jm8Wm-Wb1-212" edge="1">
          <mxGeometry width="50" height="50" relative="1" as="geometry">
            <mxPoint x="1560.474308300395" y="595.253164556962" as="sourcePoint" />
            <mxPoint x="1718.181818181818" y="595.253164556962" as="targetPoint" />
          </mxGeometry>
        </mxCell>
        <mxCell id="Np-ABr15ij-Jm8Wm-Wb1-167" value="b" style="edgeLabel;align=center;verticalAlign=middle;resizable=0;points=[];fontStyle=1;fontSize=19;labelBackgroundColor=none;container=0;" parent="Np-ABr15ij-Jm8Wm-Wb1-89" vertex="1" connectable="0">
          <mxGeometry x="-0.0825" y="1" relative="1" as="geometry">
            <mxPoint x="-2" y="-9" as="offset" />
          </mxGeometry>
        </mxCell>
        <mxCell id="Np-ABr15ij-Jm8Wm-Wb1-90" value="0" style="text;html=1;align=center;verticalAlign=middle;whiteSpace=wrap;rounded=0;container=0;fontSize=19;fontStyle=1" parent="Np-ABr15ij-Jm8Wm-Wb1-212" vertex="1">
          <mxGeometry x="1523.1225296442685" y="543.0379746835443" width="49.80237154150197" height="46.99367088607595" as="geometry" />
        </mxCell>
        <mxCell id="Np-ABr15ij-Jm8Wm-Wb1-88" value="1" style="text;html=1;align=center;verticalAlign=middle;whiteSpace=wrap;rounded=0;container=0;fontSize=19;fontStyle=1" parent="Np-ABr15ij-Jm8Wm-Wb1-212" vertex="1">
          <mxGeometry x="1523.1225296442685" y="605.6962025316456" width="49.80237154150197" height="46.99367088607595" as="geometry" />
        </mxCell>
        <mxCell id="Np-ABr15ij-Jm8Wm-Wb1-97" value="" style="rounded=0;direction=south;fontColor=default;fillColor=#00FF00;html=1;fillStyle=dots;container=0;fontSize=19;fontStyle=1" parent="Np-ABr15ij-Jm8Wm-Wb1-212" vertex="1">
          <mxGeometry x="2166.403162055336" width="74.70355731225295" height="1649.9999999999998" as="geometry" />
        </mxCell>
        <mxCell id="Np-ABr15ij-Jm8Wm-Wb1-98" value="" style="endArrow=classic;html=1;rounded=0;strokeColor=#FFF700;strokeWidth=5;fontSize=19;fontStyle=1" parent="Np-ABr15ij-Jm8Wm-Wb1-212" edge="1">
          <mxGeometry width="50" height="50" relative="1" as="geometry">
            <mxPoint x="1867.588932806324" y="459.49367088607596" as="sourcePoint" />
            <mxPoint x="2166.403162055336" y="459.4936708860759" as="targetPoint" />
          </mxGeometry>
        </mxCell>
        <mxCell id="Np-ABr15ij-Jm8Wm-Wb1-168" value="alu_out" style="edgeLabel;align=center;verticalAlign=middle;resizable=0;points=[];fontStyle=1;fontSize=19;labelBackgroundColor=none;container=0;" parent="Np-ABr15ij-Jm8Wm-Wb1-98" vertex="1" connectable="0">
          <mxGeometry x="-0.2342" relative="1" as="geometry">
            <mxPoint x="-32" y="-21" as="offset" />
          </mxGeometry>
        </mxCell>
        <mxCell id="Np-ABr15ij-Jm8Wm-Wb1-99" value="" style="triangle;whiteSpace=wrap;html=1;fillColor=none;container=0;fontSize=19;fontStyle=1" parent="Np-ABr15ij-Jm8Wm-Wb1-212" vertex="1">
          <mxGeometry x="2166.403162055336" y="1524.6835443037976" width="37.35177865612648" height="125.31645569620254" as="geometry" />
        </mxCell>
        <mxCell id="Np-ABr15ij-Jm8Wm-Wb1-106" value="" style="rounded=0;whiteSpace=wrap;html=1;direction=south;fillColor=#CCFFCC;container=0;fontSize=19;fontStyle=1" parent="Np-ABr15ij-Jm8Wm-Wb1-212" vertex="1">
          <mxGeometry x="2552.371541501976" y="355.0632911392405" width="74.70355731225295" height="501.2658227848101" as="geometry" />
        </mxCell>
        <mxCell id="Np-ABr15ij-Jm8Wm-Wb1-108" value="" style="triangle;whiteSpace=wrap;html=1;fillColor=none;container=0;fontSize=19;fontStyle=1" parent="Np-ABr15ij-Jm8Wm-Wb1-212" vertex="1">
          <mxGeometry x="2552.371541501976" y="787.9746835443037" width="24.901185770750985" height="68.35443037974683" as="geometry" />
        </mxCell>
        <mxCell id="Np-ABr15ij-Jm8Wm-Wb1-117" value="" style="shape=trapezoid;perimeter=trapezoidPerimeter;whiteSpace=wrap;html=1;fixedSize=1;direction=south;fillColor=#CCFFCC;container=0;fontSize=19;fontStyle=1" parent="Np-ABr15ij-Jm8Wm-Wb1-212" vertex="1">
          <mxGeometry x="2957.899802371541" y="187.9746835443038" width="55.14367588932806" height="438.6075949367089" as="geometry" />
        </mxCell>
        <mxCell id="Np-ABr15ij-Jm8Wm-Wb1-118" value="" style="endArrow=classic;html=1;rounded=0;exitX=0.277;exitY=0.067;exitDx=0;exitDy=0;exitPerimeter=0;strokeColor=#00FF00;strokeWidth=5;fontSize=19;fontStyle=1" parent="Np-ABr15ij-Jm8Wm-Wb1-212" source="Np-ABr15ij-Jm8Wm-Wb1-97" edge="1">
          <mxGeometry width="50" height="50" relative="1" as="geometry">
            <mxPoint x="2278.458498023715" y="459.49367088607596" as="sourcePoint" />
            <mxPoint x="2957.905138339921" y="271.5189873417722" as="targetPoint" />
            <Array as="points">
              <mxPoint x="2410" y="457" />
              <mxPoint x="2410" y="280" />
            </Array>
          </mxGeometry>
        </mxCell>
        <mxCell id="Np-ABr15ij-Jm8Wm-Wb1-181" value="addr_mem" style="edgeLabel;align=center;verticalAlign=middle;resizable=0;points=[];labelBackgroundColor=none;fontStyle=1;fontSize=19;container=0;" parent="Np-ABr15ij-Jm8Wm-Wb1-118" vertex="1" connectable="0">
          <mxGeometry x="-0.8845" y="-1" relative="1" as="geometry">
            <mxPoint x="22" y="-18" as="offset" />
          </mxGeometry>
        </mxCell>
        <mxCell id="Np-ABr15ij-Jm8Wm-Wb1-120" value="0" style="text;html=1;align=center;verticalAlign=middle;whiteSpace=wrap;rounded=0;container=0;fontSize=19;fontStyle=1" parent="Np-ABr15ij-Jm8Wm-Wb1-212" vertex="1">
          <mxGeometry x="2935.2272727272725" y="229.74683544303798" width="90.71146245059286" height="62.65822784810127" as="geometry" />
        </mxCell>
        <mxCell id="Np-ABr15ij-Jm8Wm-Wb1-121" value="1" style="text;html=1;align=center;verticalAlign=middle;whiteSpace=wrap;rounded=0;container=0;fontSize=19;fontStyle=1" parent="Np-ABr15ij-Jm8Wm-Wb1-212" vertex="1">
          <mxGeometry x="2935.2272727272725" y="355.0632911392405" width="90.71146245059286" height="62.65822784810127" as="geometry" />
        </mxCell>
        <mxCell id="Np-ABr15ij-Jm8Wm-Wb1-123" value="2" style="text;html=1;align=center;verticalAlign=middle;whiteSpace=wrap;rounded=0;container=0;fontSize=19;fontStyle=1" parent="Np-ABr15ij-Jm8Wm-Wb1-212" vertex="1">
          <mxGeometry x="2935.2272727272725" y="469.9367088607595" width="90.71146245059286" height="62.65822784810127" as="geometry" />
        </mxCell>
        <mxCell id="Np-ABr15ij-Jm8Wm-Wb1-124" value="" style="endArrow=classic;html=1;rounded=0;strokeColor=#00FF00;strokeWidth=5;fontSize=19;fontStyle=1;exitX=0.993;exitY=0.462;exitDx=0;exitDy=0;exitPerimeter=0;" parent="Np-ABr15ij-Jm8Wm-Wb1-212" source="Np-ABr15ij-Jm8Wm-Wb1-126" edge="1">
          <mxGeometry width="50" height="50" relative="1" as="geometry">
            <mxPoint x="2552" y="152" as="sourcePoint" />
            <mxPoint x="2962.535138339921" y="501.26240506329117" as="targetPoint" />
            <Array as="points">
              <mxPoint x="2743" y="143" />
              <mxPoint x="2750.8750592885376" y="501.26240506329117" />
            </Array>
          </mxGeometry>
        </mxCell>
        <mxCell id="Np-ABr15ij-Jm8Wm-Wb1-187" value="pc_next_mem" style="edgeLabel;html=1;align=center;verticalAlign=middle;resizable=0;points=[];fontStyle=1;fontSize=19;container=0;" parent="Np-ABr15ij-Jm8Wm-Wb1-124" vertex="1" connectable="0">
          <mxGeometry x="-0.7635" y="5" relative="1" as="geometry">
            <mxPoint x="-1" y="-13" as="offset" />
          </mxGeometry>
        </mxCell>
        <mxCell id="Np-ABr15ij-Jm8Wm-Wb1-170" value="ALU" style="text;align=center;verticalAlign=middle;resizable=0;points=[];autosize=1;strokeColor=none;fillColor=none;fontSize=19;fontStyle=1;fontFamily=Times New Roman;container=0;" parent="Np-ABr15ij-Jm8Wm-Wb1-212" vertex="1">
          <mxGeometry x="1790" y="440.38" width="60" height="40" as="geometry" />
        </mxCell>
        <mxCell id="Np-ABr15ij-Jm8Wm-Wb1-146" value="" style="endArrow=classic;html=1;rounded=0;strokeColor=#9999FF;strokeWidth=5;fontSize=19;fontStyle=1" parent="Np-ABr15ij-Jm8Wm-Wb1-212" edge="1">
          <mxGeometry width="50" height="50" relative="1" as="geometry">
            <mxPoint x="1805.1052631578948" y="660" as="sourcePoint" />
            <mxPoint x="1803" y="580" as="targetPoint" />
          </mxGeometry>
        </mxCell>
        <mxCell id="Np-ABr15ij-Jm8Wm-Wb1-169" value="alu_op" style="edgeLabel;html=1;align=center;verticalAlign=middle;resizable=0;points=[];fontSize=19;fontStyle=1;container=0;" parent="Np-ABr15ij-Jm8Wm-Wb1-146" vertex="1" connectable="0">
          <mxGeometry x="-0.5022" y="-3" relative="1" as="geometry">
            <mxPoint x="5" y="30" as="offset" />
          </mxGeometry>
        </mxCell>
        <mxCell id="Np-ABr15ij-Jm8Wm-Wb1-143" value="" style="endArrow=classic;html=1;rounded=0;strokeColor=#3333FF;strokeWidth=5;fontSize=19;fontStyle=1" parent="Np-ABr15ij-Jm8Wm-Wb1-212" edge="1">
          <mxGeometry width="50" height="50" relative="1" as="geometry">
            <mxPoint x="1298.3" y="703.35" as="sourcePoint" />
            <mxPoint x="1298.3" y="633.35" as="targetPoint" />
            <Array as="points" />
          </mxGeometry>
        </mxCell>
        <mxCell id="Np-ABr15ij-Jm8Wm-Wb1-160" value="forward_sel_B" style="edgeLabel;align=center;verticalAlign=middle;resizable=0;points=[];labelBackgroundColor=none;fontStyle=1;fontSize=19;container=0;" parent="Np-ABr15ij-Jm8Wm-Wb1-143" vertex="1" connectable="0">
          <mxGeometry x="-0.2118" y="1" relative="1" as="geometry">
            <mxPoint x="-9" y="37" as="offset" />
          </mxGeometry>
        </mxCell>
        <mxCell id="Np-ABr15ij-Jm8Wm-Wb1-142" value="" style="endArrow=classic;html=1;rounded=0;entryX=1;entryY=0.5;entryDx=0;entryDy=0;strokeColor=#CC00CC;strokeWidth=5;fontSize=19;fontStyle=1" parent="Np-ABr15ij-Jm8Wm-Wb1-212" edge="1">
          <mxGeometry width="50" height="50" relative="1" as="geometry">
            <mxPoint x="1298.81" y="480.38" as="sourcePoint" />
            <mxPoint x="1298.82185770751" y="449.87367088607596" as="targetPoint" />
            <Array as="points">
              <mxPoint x="1298.81" y="480.38" />
            </Array>
          </mxGeometry>
        </mxCell>
        <mxCell id="Np-ABr15ij-Jm8Wm-Wb1-159" value="forward_sel_A" style="edgeLabel;align=center;verticalAlign=middle;resizable=0;points=[];fontSize=19;fontStyle=1;labelBackgroundColor=none;container=0;" parent="Np-ABr15ij-Jm8Wm-Wb1-142" vertex="1" connectable="0">
          <mxGeometry x="-0.02" y="-3" relative="1" as="geometry">
            <mxPoint x="71" y="5" as="offset" />
          </mxGeometry>
        </mxCell>
        <mxCell id="Np-ABr15ij-Jm8Wm-Wb1-196" value="" style="endArrow=classic;html=1;rounded=0;strokeColor=#CC00CC;strokeWidth=5;fontSize=19;fontStyle=1" parent="Np-ABr15ij-Jm8Wm-Wb1-212" edge="1">
          <mxGeometry width="50" height="50" relative="1" as="geometry">
            <mxPoint x="1274.11" y="1315.8200000000002" as="sourcePoint" />
            <mxPoint x="1274" y="1280" as="targetPoint" />
            <Array as="points">
              <mxPoint x="1274.11" y="1315.8200000000002" />
            </Array>
          </mxGeometry>
        </mxCell>
        <mxCell id="Np-ABr15ij-Jm8Wm-Wb1-197" value="forward_sel_A" style="edgeLabel;align=center;verticalAlign=middle;resizable=0;points=[];fontSize=19;fontStyle=1;labelBackgroundColor=none;rotation=270;container=0;" parent="Np-ABr15ij-Jm8Wm-Wb1-196" vertex="1" connectable="0">
          <mxGeometry x="-0.02" y="-3" relative="1" as="geometry">
            <mxPoint x="-24" y="-38" as="offset" />
          </mxGeometry>
        </mxCell>
        <mxCell id="Np-ABr15ij-Jm8Wm-Wb1-198" value="" style="endArrow=classic;html=1;rounded=0;strokeColor=#3333FF;strokeWidth=5;fontSize=19;fontStyle=1" parent="Np-ABr15ij-Jm8Wm-Wb1-212" edge="1">
          <mxGeometry width="50" height="50" relative="1" as="geometry">
            <mxPoint x="1203" y="1315.8200000000002" as="sourcePoint" />
            <mxPoint x="1203" y="1280" as="targetPoint" />
            <Array as="points" />
          </mxGeometry>
        </mxCell>
        <mxCell id="Np-ABr15ij-Jm8Wm-Wb1-199" value="forward_sel_B" style="edgeLabel;align=center;verticalAlign=middle;resizable=0;points=[];labelBackgroundColor=none;fontStyle=1;fontSize=19;rotation=270;container=0;" parent="Np-ABr15ij-Jm8Wm-Wb1-198" vertex="1" connectable="0">
          <mxGeometry x="-0.2118" y="1" relative="1" as="geometry">
            <mxPoint x="-19" y="-41" as="offset" />
          </mxGeometry>
        </mxCell>
        <mxCell id="Np-ABr15ij-Jm8Wm-Wb1-200" value="" style="endArrow=classic;html=1;rounded=0;strokeColor=#00FFFF;strokeWidth=5;fontSize=19;fontStyle=1" parent="Np-ABr15ij-Jm8Wm-Wb1-212" edge="1">
          <mxGeometry width="50" height="50" relative="1" as="geometry">
            <mxPoint x="1547.36" y="1315.8200000000002" as="sourcePoint" />
            <mxPoint x="1547" y="1270" as="targetPoint" />
          </mxGeometry>
        </mxCell>
        <mxCell id="Np-ABr15ij-Jm8Wm-Wb1-201" value="sel_A" style="edgeLabel;align=center;verticalAlign=middle;resizable=0;points=[];labelBackgroundColor=none;fontSize=19;fontStyle=1;rotation=270;container=0;" parent="Np-ABr15ij-Jm8Wm-Wb1-200" vertex="1" connectable="0">
          <mxGeometry x="0.0697" y="-6" relative="1" as="geometry">
            <mxPoint x="-30" y="-2" as="offset" />
          </mxGeometry>
        </mxCell>
        <mxCell id="Np-ABr15ij-Jm8Wm-Wb1-202" value="" style="endArrow=classic;html=1;rounded=0;entryX=1;entryY=0.5;entryDx=0;entryDy=0;strokeColor=#330066;strokeWidth=5;fontSize=19;fontStyle=1" parent="Np-ABr15ij-Jm8Wm-Wb1-212" edge="1">
          <mxGeometry width="50" height="50" relative="1" as="geometry">
            <mxPoint x="1623" y="1315.8200000000002" as="sourcePoint" />
            <mxPoint x="1623" y="1264.8200000000002" as="targetPoint" />
          </mxGeometry>
        </mxCell>
        <mxCell id="Np-ABr15ij-Jm8Wm-Wb1-203" value="sel_B" style="edgeLabel;align=center;verticalAlign=middle;resizable=0;points=[];fontSize=19;fontStyle=1;labelBackgroundColor=none;rotation=270;container=0;" parent="Np-ABr15ij-Jm8Wm-Wb1-202" vertex="1" connectable="0">
          <mxGeometry x="-0.1548" y="-1" relative="1" as="geometry">
            <mxPoint x="-24" y="-4" as="offset" />
          </mxGeometry>
        </mxCell>
        <mxCell id="Np-ABr15ij-Jm8Wm-Wb1-204" value="" style="endArrow=classic;html=1;rounded=0;strokeColor=#FF8000;strokeWidth=5;fontSize=19;fontStyle=1" parent="Np-ABr15ij-Jm8Wm-Wb1-212" edge="1">
          <mxGeometry width="50" height="50" relative="1" as="geometry">
            <mxPoint x="1702.9988537549405" y="1315.8277215189873" as="sourcePoint" />
            <mxPoint x="1705" y="1270" as="targetPoint" />
          </mxGeometry>
        </mxCell>
        <mxCell id="Np-ABr15ij-Jm8Wm-Wb1-205" value="br_type" style="edgeLabel;align=center;verticalAlign=middle;resizable=0;points=[];fontStyle=1;fontSize=19;labelBackgroundColor=none;rotation=270;container=0;" parent="Np-ABr15ij-Jm8Wm-Wb1-204" vertex="1" connectable="0">
          <mxGeometry x="-0.0416" relative="1" as="geometry">
            <mxPoint x="-21" y="-15" as="offset" />
          </mxGeometry>
        </mxCell>
        <mxCell id="Np-ABr15ij-Jm8Wm-Wb1-206" value="" style="endArrow=classic;html=1;rounded=0;strokeColor=#9999FF;strokeWidth=5;fontSize=19;fontStyle=1" parent="Np-ABr15ij-Jm8Wm-Wb1-212" edge="1">
          <mxGeometry width="50" height="50" relative="1" as="geometry">
            <mxPoint x="1775.1052631578948" y="1315.8200000000002" as="sourcePoint" />
            <mxPoint x="1773" y="1270" as="targetPoint" />
          </mxGeometry>
        </mxCell>
        <mxCell id="Np-ABr15ij-Jm8Wm-Wb1-207" value="alu_op" style="edgeLabel;html=1;align=center;verticalAlign=middle;resizable=0;points=[];fontSize=19;fontStyle=1;rotation=270;container=0;" parent="Np-ABr15ij-Jm8Wm-Wb1-206" vertex="1" connectable="0">
          <mxGeometry x="-0.5022" y="-3" relative="1" as="geometry">
            <mxPoint x="-28" y="-24" as="offset" />
          </mxGeometry>
        </mxCell>
        <mxCell id="Np-ABr15ij-Jm8Wm-Wb1-208" value="" style="endArrow=classic;html=1;rounded=0;exitX=0;exitY=0.75;exitDx=0;exitDy=0;fontColor=#CCCC00;fontSize=19;strokeColor=#CCCC00;strokeWidth=15;fontStyle=1;entryX=0.904;entryY=1;entryDx=0;entryDy=0;entryPerimeter=0;" parent="Np-ABr15ij-Jm8Wm-Wb1-212" target="Np-ABr15ij-Jm8Wm-Wb1-22" edge="1">
          <mxGeometry width="50" height="50" relative="1" as="geometry">
            <mxPoint x="1058.3003952569168" y="1489.9974683544312" as="sourcePoint" />
            <mxPoint x="530" y="1490" as="targetPoint" />
            <Array as="points">
              <mxPoint x="873" y="1490.2" />
              <mxPoint x="873" y="1726.2" />
              <mxPoint x="355" y="1721" />
              <mxPoint x="357" y="1490" />
            </Array>
          </mxGeometry>
        </mxCell>
        <mxCell id="Np-ABr15ij-Jm8Wm-Wb1-209" value="stall" style="edgeLabel;html=1;align=center;verticalAlign=middle;resizable=0;points=[];fontSize=19;fontColor=none;noLabel=1;rotation=90;fontStyle=1;container=0;" parent="Np-ABr15ij-Jm8Wm-Wb1-208" vertex="1" connectable="0">
          <mxGeometry x="-0.8459" y="-4" relative="1" as="geometry">
            <mxPoint x="1" as="offset" />
          </mxGeometry>
        </mxCell>
        <mxCell id="Np-ABr15ij-Jm8Wm-Wb1-210" value="stall" style="edgeLabel;align=center;verticalAlign=middle;resizable=0;points=[];fontStyle=1;fontSize=19;labelBackgroundColor=none;container=0;" parent="Np-ABr15ij-Jm8Wm-Wb1-208" vertex="1" connectable="0">
          <mxGeometry x="-0.8793" y="-2" relative="1" as="geometry">
            <mxPoint y="-18" as="offset" />
          </mxGeometry>
        </mxCell>
        <mxCell id="AldEhN1M40VeC9kIYcqN-1" value="&lt;font style=&quot;font-size: 19px;&quot;&gt;pc_next&lt;/font&gt;" style="text;html=1;align=center;verticalAlign=middle;resizable=0;points=[];autosize=1;strokeColor=none;fillColor=none;fontSize=16;fontStyle=1" parent="Np-ABr15ij-Jm8Wm-Wb1-212" vertex="1">
          <mxGeometry x="270" y="116" width="85" height="35" as="geometry" />
        </mxCell>
        <mxCell id="AldEhN1M40VeC9kIYcqN-2" value="&lt;font style=&quot;font-size: 19px;&quot;&gt;&lt;b style=&quot;&quot;&gt;immediate_gen&lt;/b&gt;&lt;/font&gt;" style="whiteSpace=wrap;html=1;aspect=fixed;" parent="Np-ABr15ij-Jm8Wm-Wb1-212" vertex="1">
          <mxGeometry x="910" y="1099" width="105" height="105" as="geometry" />
        </mxCell>
        <mxCell id="AldEhN1M40VeC9kIYcqN-5" value="" style="endArrow=classic;html=1;rounded=0;exitX=1.022;exitY=0.172;exitDx=0;exitDy=0;exitPerimeter=0;entryX=0.259;entryY=0.602;entryDx=0;entryDy=0;entryPerimeter=0;fontSize=16;strokeWidth=6;strokeColor=#82b366;fillColor=#d5e8d4;" parent="Np-ABr15ij-Jm8Wm-Wb1-212" source="AldEhN1M40VeC9kIYcqN-2" target="Np-ABr15ij-Jm8Wm-Wb1-88" edge="1">
          <mxGeometry width="50" height="50" relative="1" as="geometry">
            <mxPoint x="1173" y="1173" as="sourcePoint" />
            <mxPoint x="1223" y="1117" as="targetPoint" />
            <Array as="points">
              <mxPoint x="1489" y="1117" />
              <mxPoint x="1489" y="634" />
            </Array>
          </mxGeometry>
        </mxCell>
        <mxCell id="AldEhN1M40VeC9kIYcqN-6" value="immediate_out" style="edgeLabel;html=1;align=center;verticalAlign=middle;resizable=0;points=[];fontSize=19;fontStyle=1" parent="AldEhN1M40VeC9kIYcqN-5" vertex="1" connectable="0">
          <mxGeometry x="0.0637" y="3" relative="1" as="geometry">
            <mxPoint x="-385" y="87" as="offset" />
          </mxGeometry>
        </mxCell>
        <mxCell id="AldEhN1M40VeC9kIYcqN-7" value="" style="endArrow=classic;html=1;rounded=0;strokeWidth=6;strokeColor=#FFF700;" parent="Np-ABr15ij-Jm8Wm-Wb1-212" edge="1">
          <mxGeometry width="50" height="50" relative="1" as="geometry">
            <mxPoint x="813" y="1117" as="sourcePoint" />
            <mxPoint x="910" y="1116" as="targetPoint" />
          </mxGeometry>
        </mxCell>
        <mxCell id="YHvIKDCHk9b3rmXarJUf-3" value="" style="endArrow=classic;html=1;rounded=0;entryX=0.858;entryY=0.987;entryDx=0;entryDy=0;entryPerimeter=0;strokeColor=#FFF700;strokeWidth=7;" parent="1" target="Np-ABr15ij-Jm8Wm-Wb1-22" edge="1">
          <mxGeometry width="50" height="50" relative="1" as="geometry">
            <mxPoint x="-1167" y="377" as="sourcePoint" />
            <mxPoint x="-982.952" y="706.9699999999998" as="targetPoint" />
            <Array as="points">
              <mxPoint x="-1165" y="703" />
            </Array>
          </mxGeometry>
        </mxCell>
      </root>
    </mxGraphModel>
  </diagram>
</mxfile>
